<svg width="1em" height="1em" fill="currentColor" viewBox="0 0 16 16" xmlns="http://www.w3.org/2000/svg" id="el">
<path d="m2.5371 1c-0.84958 0-1.5332 0.68362-1.5332 1.5332v10.934c0 0.84958 0.68362 1.5332 1.5332 1.5332h10.934c0.84958 0 1.5332-0.68362 1.5332-1.5332v-8.627c-2.3499 2.3594-4.5902 4.6297-7.2148 7.2168l-0.0078 0.0078c-0.18772 0.18418-0.41954 0.32388-0.66992 0.4043l-2.4004 0.80274c-0.0033 0.0013-0.0065 0.0026-0.0098 0.0039-0.50544 0.16394-1.0981 0.01947-1.4727-0.35742-0.37453-0.37689-0.51274-0.9702-0.34567-1.4746v-2e-3l0.80469-2.414c0.08298-0.24781 0.2254-0.4773 0.41016-0.66211 2.4597-2.4604 4.913-4.9154 7.3633-7.3652z" stroke-width=".1"/>
<path d="m15.506 1.94a0.5 0.5 0 0 1 0 0.706l-1.043 1.044-2-2 1.043-1.044a0.5 0.5 0 0 1 0.707 0l1.293 1.293zm-1.75 2.456-2-2-6.813 6.814a0.5 0.5 0 0 0-0.121 0.196l-0.805 2.414a0.25 0.25 0 0 0 0.316 0.316l2.414-0.805a0.5 0.5 0 0 0 0.196-0.12l6.813-6.814z"/>
</svg>
