<?xml version="1.0" encoding="UTF-8"?>
<svg fill="currentColor" viewBox="0 0 16 16" xmlns="http://www.w3.org/2000/svg" id="el"><path d="m7.873 5.4155a2.5 2.5 0 0 0-2.373 2.4961 2.5 2.5 0 0 0 2.373 2.4961zm2.2676 1.2051v1.5547c0.11865-0.10847 0.23954-0.20054 0.35938-0.29883a2.5 2.5 0 0 0-0.35938-1.2559z"/><path d="m8.7729 0h0.47798l0.05311 0.063731v10.208h0.03186q1.8057-2.5174 3.3459-2.5174 2.4112 0.03187 2.6236 2.7617-0.30803 4.5143-6.5643 5.449l-0.03186-0.03187v-15.869zm0.53109 11.408v3.7708q4.4399-1.0516 4.4399-4.2912 0.01062-0.13808 0.01062-0.26555 0-1.572-1.5827-1.657-1.264 0-2.8679 2.443z"/><path d="m7.873 2.4194c-4.9221 0.093793-7.873 5.4922-7.873 5.4922s2.9509 5.3984 7.873 5.4922v-1.9941a3.5 3.5 0 0 1 0-6.9941zm2.2676 0.34961v2.375a3.5 3.5 0 0 1 1.2949 2.0996c0.40032-0.20208 0.81304-0.32617 1.2461-0.32617a0.8357 0.8357 0 0 1 0.01172 0c0.9612 0.012705 1.8441 0.32344 2.4551 0.9668 0.18255 0.19222 0.3277 0.41285 0.45703 0.64648 0.18894-0.29278 0.39453-0.61914 0.39453-0.61914s-2.16-3.9368-5.8594-5.1426zm2.0156 7.0391c-0.15354 0.00319-0.41288 0.08004-0.79102 0.40234-0.3469 0.29568-0.77562 0.83483-1.2246 1.4902v1.3535c1.0196-0.33235 1.9232-0.86367 2.6953-1.4727 0.04405-0.21518 0.07226-0.44153 0.07226-0.69336a0.8357 0.8357 0 0 1 0.0019-0.06445c0.0052-0.06729 0.0078-0.1338 0.0078-0.20117 0-0.38397-0.08256-0.53953-0.16406-0.625-0.077606-0.081466-0.24696-0.16323-0.59758-0.18946z"/></svg>
