<?xml version="1.0" encoding="UTF-8"?>
<svg fill="currentColor" version="1.1" viewBox="0 0 16 16" xmlns="http://www.w3.org/2000/svg" id="el"><g transform="matrix(.80322 0 0 .80322 0 -.76171)"><path d="m12.527 4.4805v1.2969c2.8006 1.0247 4.6788 3.3389 5.4609 4.4453 0.29249 0.16735 0.56901 0.35936 0.80274 0.60547 0.2486 0.26177 0.44115 0.56845 0.60938 0.89453 0.26238-0.40108 0.51953-0.81445 0.51953-0.81445s-2.7756-4.9549-7.3926-6.4277zm-2.6348 13.271v-1.2461c-5.0884-0.04904-8.4316-5.5977-8.4316-5.5977s3.2997-5.549 8.4316-5.5977v-1.2461c-6.1032 0.050207-9.8926 6.8437-9.8926 6.8437s3.7239 6.7941 9.8926 6.8438zm6.2246-4.0293c-0.95191 0.89563-2.1674 1.7849-3.5898 2.3105v1.3086c1.3458-0.42337 2.5307-1.1297 3.5352-1.9355 0.05969-0.28079 0.09766-0.5764 0.09766-0.9043-2.68e-4 -0.0241 3.84e-4 -0.04821 2e-3 -0.07226 0.0066-0.08651 0.0098-0.172 0.0098-0.25781 0-0.1991-0.02587-0.32759-0.05469-0.44922z"/><path d="m9.8926 6.5547c-2.1562 0.03099-4.291 1.4801-4.291 4.3535 0 2.8797 2.1348 4.328 4.291 4.3574v-1.25c-1.5336-0.02928-3.0449-1.062-3.0449-3.1074 0-2.0452 1.5113-3.0781 3.0449-3.1074zm2.6348 0.77344v1.7344c0.3331 0.4759 0.5396 1.0831 0.54297 1.8281 0.38578-0.32619 0.77588-0.61386 1.1758-0.82227-0.20171-1.252-0.85804-2.157-1.7188-2.7402z"/><path d="m10.919 0.94832h0.59508l0.06612 0.079342v12.708h0.03966q2.2481-3.1341 4.1655-3.1341 3.0018 0.03968 3.2663 3.4382-0.3835 5.6202-8.1724 6.7839l-0.03967-0.03968v-19.757zm0.6612 14.203v4.6945q5.5276-1.3092 5.5276-5.3425 0.01322-0.17191 0.01322-0.3306 0-1.9571-1.9704-2.0629-1.5737 0-3.5705 3.0415z"/></g></svg>
